<?xml version="1.0" encoding="UTF-8" standalone="no"?>
<!DOCTYPE svg PUBLIC "-//W3C//DTD SVG 1.1//EN"
 "http://www.w3.org/Graphics/SVG/1.1/DTD/svg11.dtd">
<!-- Generated by graphviz version 2.47.0 (20210316.0004)
 -->
<!-- Title: dependencies Pages: 1 -->
<svg width="740pt" height="287pt"
 viewBox="0.00 0.00 740.00 287.00" xmlns="http://www.w3.org/2000/svg" xmlns:xlink="http://www.w3.org/1999/xlink">
<g id="graph0" class="graph" transform="scale(1 1) rotate(0) translate(4 283)">
<title>dependencies</title>
<polygon fill="white" stroke="transparent" points="-4,4 -4,-283 736,-283 736,4 -4,4"/>
<text text-anchor="start" x="345.01" y="-42.4" font-family="Times-12" font-weight="bold" font-size="14.00">Legend</text>
<polygon fill="#ffffb3" stroke="transparent" points="132,-10 132,-30 152,-30 152,-10 132,-10"/>
<text text-anchor="start" x="155.63" y="-15.4" font-family="Times-12" font-size="14.00"> &#160;Declarations</text>
<polygon fill="#8dd3c7" stroke="transparent" points="245,-10 245,-30 265,-30 265,-10 245,-10"/>
<text text-anchor="start" x="268.73" y="-15.4" font-family="Times-12" font-size="14.00"> &#160;Module</text>
<polygon fill="#80b1d3" stroke="transparent" points="331,-10 331,-30 351,-30 351,-10 331,-10"/>
<text text-anchor="start" x="354.78" y="-15.4" font-family="Times-12" font-size="14.00"> &#160;Bootstrap</text>
<polygon fill="#fdb462" stroke="transparent" points="428,-10 428,-30 448,-30 448,-10 428,-10"/>
<text text-anchor="start" x="451.67" y="-15.4" font-family="Times-12" font-size="14.00"> &#160;Providers</text>
<polygon fill="#fb8072" stroke="transparent" points="524,-10 524,-30 544,-30 544,-10 524,-10"/>
<text text-anchor="start" x="547.73" y="-15.4" font-family="Times-12" font-size="14.00"> &#160;Exports</text>
<g id="clust1" class="cluster">
<title>cluster_AppModule</title>
<polygon fill="none" stroke="black" stroke-dasharray="1,5" points="168,-70 168,-271 442,-271 442,-70 168,-70"/>
</g>
<g id="clust6" class="cluster">
<title>cluster_AppModule_providers</title>
<polygon fill="none" stroke="black" points="304,-154 304,-206 434,-206 434,-154 304,-154"/>
</g>
<g id="clust3" class="cluster">
<title>cluster_AppModule_imports</title>
<polygon fill="none" stroke="black" points="176,-78 176,-206 284,-206 284,-78 176,-78"/>
</g>
<g id="clust13" class="cluster">
<title>cluster_UsersModule</title>
<polygon fill="none" stroke="black" stroke-dasharray="1,5" points="450,-146 450,-214 724,-214 724,-146 450,-146"/>
</g>
<g id="clust16" class="cluster">
<title>cluster_UsersModule_exports</title>
<polygon fill="none" stroke="black" points="606,-154 606,-206 716,-206 716,-154 606,-154"/>
</g>
<g id="clust18" class="cluster">
<title>cluster_UsersModule_providers</title>
<polygon fill="none" stroke="black" points="458,-154 458,-206 598,-206 598,-154 458,-154"/>
</g>
<g id="clust7" class="cluster">
<title>cluster_PostsModule</title>
<polygon fill="none" stroke="black" stroke-dasharray="1,5" points="8,-70 8,-138 160,-138 160,-70 8,-70"/>
</g>
<g id="clust12" class="cluster">
<title>cluster_PostsModule_providers</title>
<polygon fill="none" stroke="black" points="16,-78 16,-130 152,-130 152,-78 16,-78"/>
</g>
<!-- PostsModule -->
<g id="node1" class="node">
<title>PostsModule</title>
<polygon fill="#8dd3c7" stroke="black" points="273.61,-198 270.61,-202 249.61,-202 246.61,-198 184.39,-198 184.39,-162 273.61,-162 273.61,-198"/>
<text text-anchor="middle" x="229" y="-175.8" font-family="Times,serif" font-size="14.00">PostsModule</text>
</g>
<!-- AppModule -->
<g id="node3" class="node">
<title>AppModule</title>
<polygon fill="#8dd3c7" stroke="black" points="334.66,-263 331.66,-267 310.66,-267 307.66,-263 251.34,-263 251.34,-227 334.66,-227 334.66,-263"/>
<text text-anchor="middle" x="293" y="-240.8" font-family="Times,serif" font-size="14.00">AppModule</text>
</g>
<!-- PostsModule&#45;&gt;AppModule -->
<g id="edge1" class="edge">
<title>PostsModule&#45;&gt;AppModule</title>
<path fill="none" stroke="black" d="M262.36,-198.11C262.36,-198.11 262.36,-216.99 262.36,-216.99"/>
<polygon fill="black" stroke="black" points="258.86,-216.99 262.36,-226.99 265.86,-216.99 258.86,-216.99"/>
</g>
<!-- UsersModule -->
<g id="node2" class="node">
<title>UsersModule</title>
<polygon fill="#8dd3c7" stroke="black" points="275.92,-122 272.92,-126 251.92,-126 248.92,-122 184.08,-122 184.08,-86 275.92,-86 275.92,-122"/>
<text text-anchor="middle" x="230" y="-99.8" font-family="Times,serif" font-size="14.00">UsersModule</text>
</g>
<!-- UsersModule&#45;&gt;PostsModule -->
<g id="edge4" class="edge">
<title>UsersModule&#45;&gt;PostsModule</title>
<path fill="none" stroke="black" d="M229,-122.01C229,-122.01 229,-151.85 229,-151.85"/>
<polygon fill="black" stroke="black" points="225.5,-151.85 229,-161.85 232.5,-151.85 225.5,-151.85"/>
</g>
<!-- UsersModule&#45;&gt;AppModule -->
<g id="edge2" class="edge">
<title>UsersModule&#45;&gt;AppModule</title>
<path fill="none" stroke="black" d="M275.86,-113C286.13,-113 294.05,-113 294.05,-113 294.05,-113 294.05,-216.92 294.05,-216.92"/>
<polygon fill="black" stroke="black" points="290.55,-216.92 294.05,-226.92 297.55,-216.92 290.55,-216.92"/>
</g>
<!-- UsersService  -->
<g id="node6" class="node">
<title>UsersService </title>
<polygon fill="#fb8072" stroke="black" points="707.85,-198 614.15,-198 614.15,-162 707.85,-162 707.85,-198"/>
<text text-anchor="middle" x="661" y="-175.8" font-family="Times,serif" font-size="14.00">UsersService </text>
</g>
<!-- UsersModule&#45;&gt;UsersService  -->
<g id="edge6" class="edge">
<title>UsersModule&#45;&gt;UsersService </title>
<path fill="none" stroke="black" stroke-dasharray="5,2" d="M275.72,-95C386.64,-95 661,-95 661,-95 661,-95 661,-151.97 661,-151.97"/>
<polygon fill="black" stroke="black" points="657.5,-151.97 661,-161.97 664.5,-151.97 657.5,-151.97"/>
</g>
<!-- AppService -->
<g id="node4" class="node">
<title>AppService</title>
<ellipse fill="#fdb462" stroke="black" cx="369" cy="-180" rx="56.74" ry="18"/>
<text text-anchor="middle" x="369" y="-175.8" font-family="Times,serif" font-size="14.00">AppService</text>
</g>
<!-- AppService&#45;&gt;AppModule -->
<g id="edge3" class="edge">
<title>AppService&#45;&gt;AppModule</title>
<path fill="none" stroke="black" d="M323.6,-191.03C323.6,-191.03 323.6,-216.78 323.6,-216.78"/>
<polygon fill="black" stroke="black" points="320.1,-216.78 323.6,-226.78 327.1,-216.78 320.1,-216.78"/>
</g>
<!-- PostsService -->
<g id="node5" class="node">
<title>PostsService</title>
<ellipse fill="#fdb462" stroke="black" cx="84" cy="-104" rx="60.27" ry="18"/>
<text text-anchor="middle" x="84" y="-99.8" font-family="Times,serif" font-size="14.00">PostsService</text>
</g>
<!-- PostsService&#45;&gt;PostsModule -->
<g id="edge5" class="edge">
<title>PostsService&#45;&gt;PostsModule</title>
<path fill="none" stroke="black" d="M84,-122.01C84,-144.49 84,-180 84,-180 84,-180 174.31,-180 174.31,-180"/>
<polygon fill="black" stroke="black" points="174.31,-183.5 184.31,-180 174.31,-176.5 174.31,-183.5"/>
</g>
<!-- UsersService -->
<g id="node7" class="node">
<title>UsersService</title>
<ellipse fill="#fdb462" stroke="black" cx="528" cy="-180" rx="61.95" ry="18"/>
<text text-anchor="middle" x="528" y="-175.8" font-family="Times,serif" font-size="14.00">UsersService</text>
</g>
<!-- UsersService&#45;&gt;UsersModule -->
<g id="edge7" class="edge">
<title>UsersService&#45;&gt;UsersModule</title>
<path fill="none" stroke="black" d="M528,-161.99C528,-139.51 528,-104 528,-104 528,-104 285.91,-104 285.91,-104"/>
<polygon fill="black" stroke="black" points="285.91,-100.5 275.91,-104 285.91,-107.5 285.91,-100.5"/>
</g>
</g>
</svg>
