<?xml version="1.0" encoding="UTF-8" standalone="no"?>
<!DOCTYPE svg PUBLIC "-//W3C//DTD SVG 1.1//EN"
 "http://www.w3.org/Graphics/SVG/1.1/DTD/svg11.dtd">
<!-- Generated by graphviz version 2.47.0 (20210316.0004)
 -->
<!-- Title: dependencies Pages: 1 -->
<svg width="504pt" height="347pt"
 viewBox="0.00 0.00 504.00 347.00" xmlns="http://www.w3.org/2000/svg" xmlns:xlink="http://www.w3.org/1999/xlink">
<g id="graph0" class="graph" transform="scale(1 1) rotate(0) translate(4 343)">
<title>dependencies</title>
<polygon fill="white" stroke="transparent" points="-4,4 -4,-343 500,-343 500,4 -4,4"/>
<text text-anchor="start" x="227.01" y="-42.4" font-family="Times-12" font-weight="bold" font-size="14.00">Legend</text>
<polygon fill="#ffffb3" stroke="transparent" points="14,-10 14,-30 34,-30 34,-10 14,-10"/>
<text text-anchor="start" x="37.63" y="-15.4" font-family="Times-12" font-size="14.00"> &#160;Declarations</text>
<polygon fill="#8dd3c7" stroke="transparent" points="127,-10 127,-30 147,-30 147,-10 127,-10"/>
<text text-anchor="start" x="150.73" y="-15.4" font-family="Times-12" font-size="14.00"> &#160;Module</text>
<polygon fill="#80b1d3" stroke="transparent" points="213,-10 213,-30 233,-30 233,-10 213,-10"/>
<text text-anchor="start" x="236.78" y="-15.4" font-family="Times-12" font-size="14.00"> &#160;Bootstrap</text>
<polygon fill="#fdb462" stroke="transparent" points="310,-10 310,-30 330,-30 330,-10 310,-10"/>
<text text-anchor="start" x="333.67" y="-15.4" font-family="Times-12" font-size="14.00"> &#160;Providers</text>
<polygon fill="#fb8072" stroke="transparent" points="406,-10 406,-30 426,-30 426,-10 406,-10"/>
<text text-anchor="start" x="429.73" y="-15.4" font-family="Times-12" font-size="14.00"> &#160;Exports</text>
<g id="clust13" class="cluster">
<title>cluster_UsersModule</title>
<polygon fill="none" stroke="black" stroke-dasharray="1,5" points="167,-70 167,-274 323,-274 323,-70 167,-70"/>
</g>
<g id="clust16" class="cluster">
<title>cluster_UsersModule_exports</title>
<polygon fill="none" stroke="black" points="175,-214 175,-266 285,-266 285,-214 175,-214"/>
</g>
<g id="clust18" class="cluster">
<title>cluster_UsersModule_providers</title>
<polygon fill="none" stroke="black" points="175,-78 175,-130 315,-130 315,-78 175,-78"/>
</g>
<g id="clust7" class="cluster">
<title>cluster_PostsModule</title>
<polygon fill="none" stroke="black" stroke-dasharray="1,5" points="331,-138 331,-266 483,-266 483,-138 331,-138"/>
</g>
<g id="clust12" class="cluster">
<title>cluster_PostsModule_providers</title>
<polygon fill="none" stroke="black" points="339,-146 339,-198 475,-198 475,-146 339,-146"/>
</g>
<g id="clust1" class="cluster">
<title>cluster_AppModule</title>
<polygon fill="none" stroke="black" stroke-dasharray="1,5" points="13,-206 13,-331 159,-331 159,-206 13,-206"/>
</g>
<g id="clust6" class="cluster">
<title>cluster_AppModule_providers</title>
<polygon fill="none" stroke="black" points="21,-214 21,-266 151,-266 151,-214 21,-214"/>
</g>
<!-- PostsModule -->
<g id="node1" class="node">
<title>PostsModule</title>
<polygon fill="#8dd3c7" stroke="black" points="428.61,-258 425.61,-262 404.61,-262 401.61,-258 339.39,-258 339.39,-222 428.61,-222 428.61,-258"/>
<text text-anchor="middle" x="384" y="-235.8" font-family="Times,serif" font-size="14.00">PostsModule</text>
</g>
<!-- AppModule -->
<g id="node3" class="node">
<title>AppModule</title>
<polygon fill="#8dd3c7" stroke="black" points="150.66,-323 147.66,-327 126.66,-327 123.66,-323 67.34,-323 67.34,-287 150.66,-287 150.66,-323"/>
<text text-anchor="middle" x="109" y="-300.8" font-family="Times,serif" font-size="14.00">AppModule</text>
</g>
<!-- PostsModule&#45;&gt;AppModule -->
<g id="edge1" class="edge">
<title>PostsModule&#45;&gt;AppModule</title>
<path fill="none" stroke="black" d="M384,-258.11C384,-277.34 384,-305 384,-305 384,-305 160.77,-305 160.77,-305"/>
<polygon fill="black" stroke="black" points="160.77,-301.5 150.77,-305 160.77,-308.5 160.77,-301.5"/>
</g>
<!-- UsersModule -->
<g id="node2" class="node">
<title>UsersModule</title>
<polygon fill="#8dd3c7" stroke="black" points="302.92,-190 299.92,-194 278.92,-194 275.92,-190 211.08,-190 211.08,-154 302.92,-154 302.92,-190"/>
<text text-anchor="middle" x="257" y="-167.8" font-family="Times,serif" font-size="14.00">UsersModule</text>
</g>
<!-- UsersModule&#45;&gt;PostsModule -->
<g id="edge4" class="edge">
<title>UsersModule&#45;&gt;PostsModule</title>
<path fill="none" stroke="black" d="M302.79,-172C323.33,-172 343.03,-172 343.03,-172 343.03,-172 343.03,-211.78 343.03,-211.78"/>
<polygon fill="black" stroke="black" points="339.53,-211.78 343.03,-221.78 346.53,-211.78 339.53,-211.78"/>
</g>
<!-- UsersModule&#45;&gt;AppModule -->
<g id="edge2" class="edge">
<title>UsersModule&#45;&gt;AppModule</title>
<path fill="none" stroke="black" d="M211.19,-172C180.89,-172 146.72,-172 146.72,-172 146.72,-172 146.72,-276.79 146.72,-276.79"/>
<polygon fill="black" stroke="black" points="143.22,-276.79 146.72,-286.79 150.22,-276.79 143.22,-276.79"/>
</g>
<!-- UsersService  -->
<g id="node6" class="node">
<title>UsersService </title>
<polygon fill="#fb8072" stroke="black" points="276.85,-258 183.15,-258 183.15,-222 276.85,-222 276.85,-258"/>
<text text-anchor="middle" x="230" y="-235.8" font-family="Times,serif" font-size="14.00">UsersService </text>
</g>
<!-- UsersModule&#45;&gt;UsersService  -->
<g id="edge6" class="edge">
<title>UsersModule&#45;&gt;UsersService </title>
<path fill="none" stroke="black" stroke-dasharray="5,2" d="M243.98,-190.22C243.98,-190.22 243.98,-211.73 243.98,-211.73"/>
<polygon fill="black" stroke="black" points="240.48,-211.73 243.98,-221.73 247.48,-211.73 240.48,-211.73"/>
</g>
<!-- AppService -->
<g id="node4" class="node">
<title>AppService</title>
<ellipse fill="#fdb462" stroke="black" cx="86" cy="-240" rx="56.74" ry="18"/>
<text text-anchor="middle" x="86" y="-235.8" font-family="Times,serif" font-size="14.00">AppService</text>
</g>
<!-- AppService&#45;&gt;AppModule -->
<g id="edge3" class="edge">
<title>AppService&#45;&gt;AppModule</title>
<path fill="none" stroke="black" d="M104.9,-257.08C104.9,-257.08 104.9,-276.9 104.9,-276.9"/>
<polygon fill="black" stroke="black" points="101.4,-276.9 104.9,-286.9 108.4,-276.9 101.4,-276.9"/>
</g>
<!-- PostsService -->
<g id="node5" class="node">
<title>PostsService</title>
<ellipse fill="#fdb462" stroke="black" cx="407" cy="-172" rx="60.27" ry="18"/>
<text text-anchor="middle" x="407" y="-167.8" font-family="Times,serif" font-size="14.00">PostsService</text>
</g>
<!-- PostsService&#45;&gt;PostsModule -->
<g id="edge5" class="edge">
<title>PostsService&#45;&gt;PostsModule</title>
<path fill="none" stroke="black" d="M387.59,-189.16C387.59,-189.16 387.59,-211.65 387.59,-211.65"/>
<polygon fill="black" stroke="black" points="384.09,-211.65 387.59,-221.65 391.09,-211.65 384.09,-211.65"/>
</g>
<!-- UsersService -->
<g id="node7" class="node">
<title>UsersService</title>
<ellipse fill="#fdb462" stroke="black" cx="245" cy="-104" rx="61.95" ry="18"/>
<text text-anchor="middle" x="245" y="-99.8" font-family="Times,serif" font-size="14.00">UsersService</text>
</g>
<!-- UsersService&#45;&gt;UsersModule -->
<g id="edge7" class="edge">
<title>UsersService&#45;&gt;UsersModule</title>
<path fill="none" stroke="black" d="M257,-121.87C257,-121.87 257,-143.54 257,-143.54"/>
<polygon fill="black" stroke="black" points="253.5,-143.54 257,-153.54 260.5,-143.54 253.5,-143.54"/>
</g>
</g>
</svg>
