<?xml version="1.0" encoding="UTF-8" standalone="no"?>
<!DOCTYPE svg PUBLIC "-//W3C//DTD SVG 1.1//EN"
 "http://www.w3.org/Graphics/SVG/1.1/DTD/svg11.dtd">
<!-- Generated by graphviz version 2.47.0 (20210316.0004)
 -->
<!-- Title: dependencies Pages: 1 -->
<svg width="728pt" height="279pt"
 viewBox="0.00 0.00 728.00 279.00" xmlns="http://www.w3.org/2000/svg" xmlns:xlink="http://www.w3.org/1999/xlink">
<g id="graph0" class="graph" transform="scale(1 1) rotate(0) translate(4 275)">
<title>dependencies</title>
<polygon fill="white" stroke="transparent" points="-4,4 -4,-275 724,-275 724,4 -4,4"/>
<text text-anchor="start" x="339.01" y="-42.4" font-family="Times-12" font-weight="bold" font-size="14.00">Legend</text>
<polygon fill="#ffffb3" stroke="transparent" points="126,-10 126,-30 146,-30 146,-10 126,-10"/>
<text text-anchor="start" x="149.63" y="-15.4" font-family="Times-12" font-size="14.00"> &#160;Declarations</text>
<polygon fill="#8dd3c7" stroke="transparent" points="239,-10 239,-30 259,-30 259,-10 239,-10"/>
<text text-anchor="start" x="262.73" y="-15.4" font-family="Times-12" font-size="14.00"> &#160;Module</text>
<polygon fill="#80b1d3" stroke="transparent" points="325,-10 325,-30 345,-30 345,-10 325,-10"/>
<text text-anchor="start" x="348.78" y="-15.4" font-family="Times-12" font-size="14.00"> &#160;Bootstrap</text>
<polygon fill="#fdb462" stroke="transparent" points="422,-10 422,-30 442,-30 442,-10 422,-10"/>
<text text-anchor="start" x="445.67" y="-15.4" font-family="Times-12" font-size="14.00"> &#160;Providers</text>
<polygon fill="#fb8072" stroke="transparent" points="518,-10 518,-30 538,-30 538,-10 518,-10"/>
<text text-anchor="start" x="541.73" y="-15.4" font-family="Times-12" font-size="14.00"> &#160;Exports</text>
<g id="clust7" class="cluster">
<title>cluster_PostsModule</title>
<polygon fill="none" stroke="black" stroke-dasharray="1,5" points="162,-70 162,-198 430,-198 430,-70 162,-70"/>
</g>
<g id="clust12" class="cluster">
<title>cluster_PostsModule_providers</title>
<polygon fill="none" stroke="black" points="170,-78 170,-130 306,-130 306,-78 170,-78"/>
</g>
<g id="clust9" class="cluster">
<title>cluster_PostsModule_imports</title>
<polygon fill="none" stroke="black" points="314,-78 314,-130 422,-130 422,-78 314,-78"/>
</g>
<g id="clust13" class="cluster">
<title>cluster_UsersModule</title>
<polygon fill="none" stroke="black" stroke-dasharray="1,5" points="438,-138 438,-206 712,-206 712,-138 438,-138"/>
</g>
<g id="clust18" class="cluster">
<title>cluster_UsersModule_providers</title>
<polygon fill="none" stroke="black" points="564,-146 564,-198 704,-198 704,-146 564,-146"/>
</g>
<g id="clust16" class="cluster">
<title>cluster_UsersModule_exports</title>
<polygon fill="none" stroke="black" points="446,-146 446,-198 556,-198 556,-146 446,-146"/>
</g>
<g id="clust1" class="cluster">
<title>cluster_AppModule</title>
<polygon fill="none" stroke="black" stroke-dasharray="1,5" points="8,-138 8,-263 154,-263 154,-138 8,-138"/>
</g>
<g id="clust6" class="cluster">
<title>cluster_AppModule_providers</title>
<polygon fill="none" stroke="black" points="16,-146 16,-198 146,-198 146,-146 16,-146"/>
</g>
<!-- PostsModule -->
<g id="node1" class="node">
<title>PostsModule</title>
<polygon fill="#8dd3c7" stroke="black" points="282.61,-190 279.61,-194 258.61,-194 255.61,-190 193.39,-190 193.39,-154 282.61,-154 282.61,-190"/>
<text text-anchor="middle" x="238" y="-167.8" font-family="Times,serif" font-size="14.00">PostsModule</text>
</g>
<!-- AppModule -->
<g id="node3" class="node">
<title>AppModule</title>
<polygon fill="#8dd3c7" stroke="black" points="145.66,-255 142.66,-259 121.66,-259 118.66,-255 62.34,-255 62.34,-219 145.66,-219 145.66,-255"/>
<text text-anchor="middle" x="104" y="-232.8" font-family="Times,serif" font-size="14.00">AppModule</text>
</g>
<!-- PostsModule&#45;&gt;AppModule -->
<g id="edge1" class="edge">
<title>PostsModule&#45;&gt;AppModule</title>
<path fill="none" stroke="black" d="M193.24,-172C168.1,-172 141.72,-172 141.72,-172 141.72,-172 141.72,-208.89 141.72,-208.89"/>
<polygon fill="black" stroke="black" points="138.22,-208.89 141.72,-218.89 145.22,-208.89 138.22,-208.89"/>
</g>
<!-- UsersModule -->
<g id="node2" class="node">
<title>UsersModule</title>
<polygon fill="#8dd3c7" stroke="black" points="413.92,-122 410.92,-126 389.92,-126 386.92,-122 322.08,-122 322.08,-86 413.92,-86 413.92,-122"/>
<text text-anchor="middle" x="368" y="-99.8" font-family="Times,serif" font-size="14.00">UsersModule</text>
</g>
<!-- UsersModule&#45;&gt;PostsModule -->
<g id="edge4" class="edge">
<title>UsersModule&#45;&gt;PostsModule</title>
<path fill="none" stroke="black" d="M345.14,-122.29C345.14,-144.21 345.14,-178 345.14,-178 345.14,-178 292.82,-178 292.82,-178"/>
<polygon fill="black" stroke="black" points="292.82,-174.5 282.82,-178 292.82,-181.5 292.82,-174.5"/>
</g>
<!-- UsersModule&#45;&gt;AppModule -->
<g id="edge2" class="edge">
<title>UsersModule&#45;&gt;AppModule</title>
<path fill="none" stroke="black" d="M368,-122.21C368,-158.64 368,-237 368,-237 368,-237 155.83,-237 155.83,-237"/>
<polygon fill="black" stroke="black" points="155.83,-233.5 145.83,-237 155.83,-240.5 155.83,-233.5"/>
</g>
<!-- UsersService  -->
<g id="node6" class="node">
<title>UsersService </title>
<polygon fill="#fb8072" stroke="black" points="547.85,-190 454.15,-190 454.15,-154 547.85,-154 547.85,-190"/>
<text text-anchor="middle" x="501" y="-167.8" font-family="Times,serif" font-size="14.00">UsersService </text>
</g>
<!-- UsersModule&#45;&gt;UsersService  -->
<g id="edge6" class="edge">
<title>UsersModule&#45;&gt;UsersService </title>
<path fill="none" stroke="black" stroke-dasharray="5,2" d="M390.86,-122.27C390.86,-140.56 390.86,-166 390.86,-166 390.86,-166 444.29,-166 444.29,-166"/>
<polygon fill="black" stroke="black" points="444.29,-169.5 454.29,-166 444.29,-162.5 444.29,-169.5"/>
</g>
<!-- AppService -->
<g id="node4" class="node">
<title>AppService</title>
<ellipse fill="#fdb462" stroke="black" cx="81" cy="-172" rx="56.74" ry="18"/>
<text text-anchor="middle" x="81" y="-167.8" font-family="Times,serif" font-size="14.00">AppService</text>
</g>
<!-- AppService&#45;&gt;AppModule -->
<g id="edge3" class="edge">
<title>AppService&#45;&gt;AppModule</title>
<path fill="none" stroke="black" d="M99.9,-189.08C99.9,-189.08 99.9,-208.9 99.9,-208.9"/>
<polygon fill="black" stroke="black" points="96.4,-208.9 99.9,-218.9 103.4,-208.9 96.4,-208.9"/>
</g>
<!-- PostsService -->
<g id="node5" class="node">
<title>PostsService</title>
<ellipse fill="#fdb462" stroke="black" cx="238" cy="-104" rx="60.27" ry="18"/>
<text text-anchor="middle" x="238" y="-99.8" font-family="Times,serif" font-size="14.00">PostsService</text>
</g>
<!-- PostsService&#45;&gt;PostsModule -->
<g id="edge5" class="edge">
<title>PostsService&#45;&gt;PostsModule</title>
<path fill="none" stroke="black" d="M238,-122.22C238,-122.22 238,-143.73 238,-143.73"/>
<polygon fill="black" stroke="black" points="234.5,-143.73 238,-153.73 241.5,-143.73 234.5,-143.73"/>
</g>
<!-- UsersService -->
<g id="node7" class="node">
<title>UsersService</title>
<ellipse fill="#fdb462" stroke="black" cx="634" cy="-172" rx="61.95" ry="18"/>
<text text-anchor="middle" x="634" y="-167.8" font-family="Times,serif" font-size="14.00">UsersService</text>
</g>
<!-- UsersService&#45;&gt;UsersModule -->
<g id="edge7" class="edge">
<title>UsersService&#45;&gt;UsersModule</title>
<path fill="none" stroke="black" d="M634,-153.78C634,-133.63 634,-104 634,-104 634,-104 423.73,-104 423.73,-104"/>
<polygon fill="black" stroke="black" points="423.73,-100.5 413.73,-104 423.73,-107.5 423.73,-100.5"/>
</g>
</g>
</svg>
